<?xml version="1.0" encoding="UTF-8" standalone="no"?>
<!-- Created with Inkscape (http://www.inkscape.org/) -->

<svg
   width="29.241646mm"
   height="15.554397mm"
   viewBox="0 0 29.241645 15.554396"
   version="1.1"
   id="svg1"
   xml:space="preserve"
   inkscape:export-filename="RNUM_LOGO.svg"
   inkscape:export-xdpi="96"
   inkscape:export-ydpi="96"
   inkscape:version="1.3 (0e150ed6c4, 2023-07-21)"
   sodipodi:docname="RNUM_LOGO.svg"
   xmlns:inkscape="http://www.inkscape.org/namespaces/inkscape"
   xmlns:sodipodi="http://sodipodi.sourceforge.net/DTD/sodipodi-0.dtd"
   xmlns="http://www.w3.org/2000/svg"
   xmlns:svg="http://www.w3.org/2000/svg"><sodipodi:namedview
     id="namedview1"
     pagecolor="#ffffff"
     bordercolor="#999999"
     borderopacity="1"
     inkscape:showpageshadow="2"
     inkscape:pageopacity="0"
     inkscape:pagecheckerboard="0"
     inkscape:deskcolor="#d1d1d1"
     inkscape:document-units="mm"
     inkscape:zoom="4.3389453"
     inkscape:cx="62.342339"
     inkscape:cy="4.0332382"
     inkscape:window-width="1920"
     inkscape:window-height="1057"
     inkscape:window-x="-8"
     inkscape:window-y="-8"
     inkscape:window-maximized="1"
     inkscape:current-layer="layer1" /><defs
     id="defs1" /><g
     inkscape:label="Capa 1"
     inkscape:groupmode="layer"
     id="layer1"
     transform="translate(-263.842,-164.76091)"><g
       id="g2"
       transform="matrix(0.73277156,0,0,0.73277156,74.413186,46.10709)"><g
         id="g1"
         transform="matrix(0.20667441,0,0,0.20667441,220.91168,136.8789)"><g
           id="g84"
           transform="translate(175.5784,-25.871081)"><path
             style="display:inline;fill:#009bda"
             d="M 44.315086,249.43264 C 37.809206,248.41439 31.905957,246.06602 25.998143,242.14598 22.045259,239.52311 16.68835,234.16275 14.023359,230.16349 10.606388,225.03576 8.3381424,219.57246 7.0777372,213.43424 6.5406003,210.81837 6.4764928,209.6152 6.3745696,200.2372 6.2534083,189.08909 6.4409565,186.0213 7.5135734,181.60613 11.919219,163.47135 26.382773,150.25388 44.942782,147.40157 c 1.797632,-0.27626 13.479029,-0.34562 58.208338,-0.34562 h 55.95937 l 3.175,0.57852 c 6.37248,1.16115 13.25856,4.04049 18.38756,7.68855 3.06547,2.18035 7.78391,6.81954 10.02529,9.85689 3.45479,4.68168 6.03116,10.12122 7.43714,15.70214 1.24986,4.96121 1.3799,6.9444 1.25185,19.09057 -0.10601,10.05439 -0.17074,11.36443 -0.67983,13.75833 -0.86332,4.05959 -2.06191,7.50899 -3.88974,11.19414 -6.16994,12.43945 -17.18087,20.96704 -31.20935,24.17056 l -2.64584,0.6042 -57.15,0.0501 c -47.643595,0.0418 -57.54048,-0.011 -59.497484,-0.31731 z M 160.60074,240.9926 c 7.75797,-1.35288 14.37126,-4.80231 19.87447,-10.36634 5.14707,-5.20396 8.36492,-11.16635 9.90361,-18.35052 0.42399,-1.97965 0.48167,-3.62717 0.48167,-13.75833 0,-12.5839 -0.0465,-13.10401 -1.59835,-17.88607 -1.10391,-3.40164 -2.92784,-7.07035 -4.8401,-9.73546 -5.67603,-7.91069 -13.47332,-12.91086 -23.22822,-14.89557 -2.21971,-0.45161 -5.39619,-0.4777 -58.175,-0.4777 -51.651093,0 -56.006358,0.034 -58.223785,0.45426 -7.328726,1.38903 -14.052748,4.90072 -19.140969,9.99656 -4.355452,4.36198 -7.309329,9.14688 -9.137223,14.80112 -1.583586,4.89852 -1.794643,7.3209 -1.667228,19.13539 0.108287,10.04088 0.134176,10.47256 0.789223,13.15956 1.371157,5.62446 3.393509,9.89665 6.700745,14.1552 5.757213,7.41327 13.743066,12.22027 22.867782,13.76502 1.556787,0.26356 13.963628,0.34179 57.578365,0.36307 47.7054,0.0233 55.90914,-0.0278 57.81501,-0.36019 z"
             id="path63" /><path
             style="display:inline;fill:#000000"
             d="m 45.60424,219.18647 c -2.489493,-1.14318 -2.751912,-2.05595 -2.766511,-9.6227 l -0.01161,-6.01928 h 1.455209 1.455208 v 5.93149 c 0,3.26232 0.07396,6.12422 0.164354,6.35979 0.214431,0.55879 1.475802,1.20248 2.356401,1.20248 0.973472,-0.15407 2.241745,-0.608 2.241745,-1.5468 v -5.97348 -5.97348 h 1.472243 1.472244 l -0.08318,6.43628 -0.08318,6.43628 c -0.0207,1.60196 -1.095544,2.10135 -2.503296,2.73264 -1.348964,0.68819 -3.714405,0.70502 -5.169621,0.0368 z m 52.784375,0.31501 c -1.022461,-0.36278 -2.476837,-1.60607 -3.077265,-2.63063 -0.834288,-1.4236 -1.086166,-3.61623 -0.610553,-5.31495 0.46206,-1.65032 2.414969,-3.66421 3.806373,-3.92524 1.440885,-0.27032 3.1678,0.002 4.06531,0.64111 0.97927,0.6973 1.1078,0.70139 1.1078,0.0352 0,-0.46502 0.17639,-0.52916 1.45521,-0.52916 h 1.45521 v 5.82083 5.82084 h -1.45521 c -1.27882,0 -1.45521,-0.0642 -1.45521,-0.52917 0,-0.29104 -0.0298,-0.52867 -0.0661,-0.52806 -0.0364,6.1e-4 -0.65187,0.29826 -1.36776,0.66146 -1.23176,0.62491 -2.870917,0.82791 -3.857765,0.47775 z m 3.911395,-2.87617 c 1.51308,-1.05981 1.8921,-3.96527 0.70181,-5.37986 -0.83339,-0.99042 -2.15819,-1.40172 -3.405573,-1.0573 -0.49997,0.13804 -1.214345,0.61383 -1.5875,1.0573 -0.563894,0.67015 -0.678465,1.07543 -0.678465,2.39997 0,1.45962 0.07566,1.66932 0.899583,2.49324 0.777142,0.77714 1.075234,0.89959 2.190085,0.89959 0.74121,0 1.54145,-0.17577 1.88006,-0.41294 z m 52.24685,2.51704 c -2.16663,-1.10153 -3.24497,-2.96822 -3.23577,-5.60134 0.0162,-4.63819 4.19433,-7.47729 7.89255,-5.36312 1.38606,0.79237 1.36206,0.79009 1.36206,0.1291 0,-0.45861 0.17639,-0.52916 1.32292,-0.52916 h 1.32291 v 5.82083 5.82084 h -1.32291 c -1.23672,0 -1.32292,-0.0434 -1.32292,-0.66522 v -0.66521 l -1.07426,0.71091 c -1.48118,0.9802 -3.42524,1.11481 -4.94458,0.34237 z m 4.46532,-2.51855 c 1.48284,-0.76681 2.02945,-3.43197 1.03752,-5.05877 -0.74388,-1.22 -1.47301,-1.51912 -3.49854,-1.43524 -1.0098,0.0418 -2.24923,1.38172 -2.46624,2.66614 -0.5166,3.05775 2.25408,5.21022 4.92726,3.82787 z M 56.319865,211.3497 v -8.06979 h 1.455209 1.455208 v 8.06979 8.0698 h -1.455208 -1.455209 z m 6.085417,3.43959 v -4.63021 h -0.79375 c -0.764352,0 -0.79375,-0.0441 -0.79375,-1.19063 0,-1.14652 0.0294,-1.19062 0.79375,-1.19062 h 0.79375 v -2.24896 -2.24896 h 1.455208 1.455209 v 2.24896 2.24896 h 0.79375 c 0.764352,0 0.79375,0.0441 0.79375,1.19062 0,1.14653 -0.0294,1.19063 -0.79375,1.19063 h -0.79375 v 4.63021 4.63021 H 63.86049 62.405282 Z m 6.085417,-1.19063 v -5.82083 h 1.322916 1.322917 v 5.82083 5.82084 h -1.322917 -1.322916 z m 5.55625,0 v -5.82083 h 1.455208 c 1.401127,0 1.455208,0.0263 1.455208,0.70758 v 0.70758 l 0.595313,-0.55767 c 1.75111,-1.64036 4.800228,-1.46427 6.136043,0.35436 0.362393,0.49338 0.394507,0.48757 1.120345,-0.20283 1.989947,-1.89279 5.214875,-1.65526 6.619861,0.48757 0.40464,0.61715 0.491394,1.4457 0.569242,5.43659 l 0.09185,4.70849 h -1.480908 -1.480908 v -3.71267 c 0,-4.34722 -0.284954,-5.39396 -1.543652,-5.67041 -0.95937,-0.21072 -2.262028,0.38552 -2.730753,1.24988 -0.190254,0.35084 -0.368948,2.13062 -0.438043,4.36288 l -0.116701,3.77032 h -1.289592 -1.289593 l -0.01152,-3.10886 c -0.01431,-3.85964 -0.277709,-5.3174 -1.077882,-5.96534 -0.7761,-0.62845 -1.963141,-0.42771 -2.879345,0.48692 -0.637697,0.6366 -0.664519,0.80269 -0.746666,4.6238 l -0.08521,3.96348 H 75.4831 74.046954 Z m 41.010421,5.44556 c 0,-0.36484 2.2607,-13.71336 2.5242,-14.90441 0.11619,-0.52518 0.2956,-0.59532 1.52281,-0.59532 h 1.39109 l 1.83641,5.55163 c 1.01002,3.05339 1.9147,5.46441 2.01041,5.35781 0.0957,-0.10659 0.97267,-2.60483 1.94882,-5.55162 l 1.77483,-5.35782 h 1.43321 c 0.78827,0 1.43322,0.0674 1.43322,0.14979 0,0.24297 2.37088,14.47895 2.51976,15.1299 0.12815,0.56034 0.0527,0.59532 -1.28406,0.59532 h -1.4202 l -0.59362,-3.63803 c -0.81307,-4.98299 -1.09383,-6.24058 -1.33474,-5.97864 -0.11329,0.12318 -0.90381,2.34253 -1.75672,4.93191 l -1.55075,4.70795 -1.30654,-0.0777 -1.30655,-0.0777 -1.60032,-4.82864 c -0.88018,-2.65576 -1.66438,-4.82865 -1.74267,-4.82865 -0.0783,0 -0.48655,2.05383 -0.90726,4.56406 -0.4207,2.51024 -0.81829,4.7129 -0.88352,4.8948 -0.17538,0.48908 -2.70781,0.44742 -2.70781,-0.0446 z m 20.37291,-5.44556 v -5.82083 h 1.45521 1.45521 v 5.82083 5.82084 h -1.45521 -1.45521 z m 5.29167,-2.24896 v -8.06979 h 1.45521 1.45521 v 8.06979 8.0698 h -1.45521 -1.45521 z m 5.29167,0 v -8.06979 h 1.4552 1.45521 v 8.06979 8.0698 h -1.45521 -1.4552 z m -77.503718,-5.59193 c -0.624436,-0.79384 -0.639386,-0.8811 -0.30268,-1.76671 0.475748,-1.25131 2.54683,-1.39103 3.176597,-0.2143 1.051228,1.96424 -1.502472,3.72452 -2.873917,1.98101 z m 67.093678,0.21329 c -1.00691,-1.11263 -0.19699,-3.02188 1.28191,-3.02188 1.50506,0 2.33888,2.0697 1.23594,3.06785 -0.64222,0.5812 -1.97224,0.55692 -2.51785,-0.046 z m -88.875589,-4.60938 c 0.283009,-0.47294 0.859449,-1.42544 1.280979,-2.11667 l 0.766417,-1.25677 h 1.523281 c 0.837804,0 1.523281,0.0722 1.523281,0.16049 0,0.0883 -0.853559,1.04077 -1.896798,2.11667 -1.631836,1.68292 -2.02356,1.95618 -2.804259,1.95618 H 46.21343 Z m 0.463749,-8.90213 c -2.185264,-1.01175 -3.307291,-2.92963 -3.307291,-5.65316 0,-4.16751 3.86275,-6.94105 7.958062,-5.71406 2.18812,0.65558 3.760796,2.6561 4.100361,5.21586 l 0.180583,1.3613 h -4.796586 c -3.172622,0 -4.796587,0.094 -4.796587,0.27773 0,0.15274 0.180609,0.62698 0.401354,1.05385 0.797814,1.5428 3.086212,2.0369 4.974678,1.07411 0.923252,-0.4707 1.060823,-0.47692 2.040319,-0.0922 0.577674,0.22692 1.050316,0.4913 1.050316,0.58752 0,0.36994 -1.499966,1.58749 -2.438898,1.97971 -1.356494,0.56664 -4.044654,0.5212 -5.366311,-0.0907 z m 5.953125,-7.15101 c 0,-0.13435 -0.304833,-0.60655 -0.677407,-1.04933 -1.159325,-1.37778 -3.662935,-1.43763 -4.981481,-0.11909 -1.269179,1.26918 -1.016828,1.41271 2.483888,1.41271 1.764381,0 3.175,-0.10854 3.175,-0.24429 z m 8.507187,7.37031 c -2.589641,-1.03748 -4.134124,-4.19168 -3.500101,-7.14803 0.874155,-4.07605 4.892348,-5.96721 8.081002,-3.80333 l 0.934829,0.63439 v -2.90245 -2.90244 h 1.455208 1.455209 v 8.06979 8.0698 H 68.62299 c -1.288832,0 -1.455208,-0.0618 -1.455208,-0.54032 0,-0.52371 -0.03529,-0.51964 -1.147725,0.13229 -1.215432,0.71229 -3.135953,0.8839 -4.368005,0.3903 z m 4.269697,-2.75801 c 2.629976,-1.84211 1.414454,-6.48468 -1.697823,-6.48468 -2.087267,0 -3.407303,1.40017 -3.405155,3.61186 0.0026,2.69332 2.972338,4.36518 5.102978,2.87282 z m 32.537029,2.48528 c -2.318958,-1.14786 -3.632143,-4.17744 -3.011958,-6.94872 0.901301,-4.02744 4.9138,-5.88696 8.07456,-3.74201 l 0.95265,0.64649 v -0.65349 c 0,-0.61571 0.0841,-0.65348 1.45521,-0.65348 h 1.45521 v 5.82083 5.82084 h -1.45521 c -1.28883,0 -1.45521,-0.0618 -1.45521,-0.54032 0,-0.52371 -0.0353,-0.51964 -1.14772,0.13229 -1.45756,0.85418 -3.28999,0.89844 -4.867532,0.11757 z m 4.849622,-2.52838 c 0.335,-0.2195 0.80806,-0.92007 1.05124,-1.55684 0.59409,-1.55559 0.32952,-2.87044 -0.80606,-4.00603 -0.71289,-0.71289 -1.08591,-0.87871 -1.97665,-0.87871 -2.183108,0 -3.453828,1.28569 -3.451909,3.49259 0.0025,2.86789 2.841789,4.48326 5.183379,2.94899 z m 9.89738,2.35582 c -2.00236,-1.05358 -2.98979,-2.53152 -3.12658,-4.67976 -0.12826,-2.01428 0.25503,-3.31356 1.3431,-4.5528 1.573,-1.79155 4.54015,-2.63314 6.96773,-1.9763 1.12242,0.30371 3.28192,1.70323 3.28192,2.12696 0,0.13274 -0.43574,0.51064 -0.96831,0.83979 l -0.96832,0.59845 -1.00233,-0.57687 c -1.80444,-1.0385 -4.39697,-0.60199 -5.39504,0.90839 -0.33307,0.50402 -0.50569,1.23346 -0.50766,2.14525 -0.003,1.16799 0.11631,1.50606 0.76871,2.18703 0.42444,0.44302 1.21578,0.92506 1.75855,1.07121 1.1633,0.31325 2.93771,-0.01 3.66372,-0.66666 0.45686,-0.41345 0.55438,-0.39529 1.60282,0.29854 l 1.11636,0.73877 -1.00392,0.86783 c -1.88188,1.62675 -5.15853,1.91834 -7.53075,0.67017 z m 20.11574,0.43323 c -1.88164,-0.75096 -3.50417,-2.83011 -3.84056,-4.9214 -0.54565,-3.39219 2.54754,-6.94681 6.05092,-6.95359 2.06198,-0.004 4.48173,1.51255 5.42558,3.40039 1.51598,3.03216 0.37061,6.5937 -2.60549,8.1018 -1.40968,0.71434 -3.74164,0.88716 -5.03045,0.3728 z m 3.93831,-2.73668 c 0.82868,-0.42853 1.61004,-1.83805 1.61004,-2.90441 0,-0.95423 -0.60016,-2.29142 -1.31418,-2.92808 -0.43733,-0.38995 -0.96767,-0.52917 -2.01581,-0.52917 -1.24057,0 -1.52812,0.10578 -2.25005,0.82771 -1.45293,1.45293 -1.33852,4.16708 0.22757,5.39897 0.79871,0.62826 2.65879,0.69535 3.74243,0.13498 z m 23.17358,2.655 c -1.05932,-0.47421 -2.39173,-1.90973 -2.89701,-3.12118 -0.56595,-1.3569 -0.52019,-4.0455 0.0913,-5.36631 0.87283,-1.88523 2.93245,-3.30729 4.79005,-3.30729 0.93367,0 2.54249,0.6182 3.23146,1.24172 0.44261,0.40055 0.47271,0.38306 0.47271,-0.27468 0,-0.67508 0.0567,-0.70246 1.45521,-0.70246 h 1.45521 v 5.82083 5.82084 h -1.45521 c -1.26434,0 -1.45521,-0.0674 -1.45521,-0.51383 0,-0.48846 -0.0555,-0.48209 -1.12448,0.1291 -1.28449,0.73442 -3.26856,0.85321 -4.56406,0.27326 z m 4.57233,-2.69109 c 1.87677,-1.22971 1.73224,-5.05832 -0.22925,-6.07264 -3.32304,-1.71841 -6.44047,2.30432 -4.21153,5.43457 0.92769,1.30282 2.97688,1.59726 4.44078,0.63807 z M 31.978199,184.71875 v -7.97782 l 3.057152,0.1746 c 3.708606,0.21182 4.855018,0.68177 5.699056,2.33622 0.432534,0.84784 0.536563,1.44138 0.453614,2.58815 -0.121987,1.68645 -0.692743,2.64597 -1.999926,3.36214 -0.472943,0.25912 -0.859896,0.5161 -0.859896,0.57107 0,0.055 0.773906,1.55879 1.719791,3.3418 0.945886,1.78302 1.719792,3.32425 1.719792,3.42496 0,0.10071 -0.674628,0.14741 -1.499174,0.10376 l -1.499175,-0.0794 -1.715302,-3.24114 c -0.943417,-1.78263 -1.816601,-3.24115 -1.940409,-3.24115 -0.123809,0 -0.225107,1.48828 -0.225107,3.30729 v 3.3073 h -1.455208 -1.455208 z m 6.076005,-1.96659 c 0.130102,-0.13312 0.315909,-0.56347 0.412905,-0.95633 0.274849,-1.11322 -0.819483,-2.06384 -2.375842,-2.06384 h -1.202652 v 1.75256 1.75255 l 1.46452,-0.12145 c 0.805485,-0.0668 1.570966,-0.23037 1.701069,-0.36349 z m 41.548995,2.00692 v -7.93751 h 1.424938 1.424938 l 3.403708,5.26608 3.403707,5.26608 0.07162,-5.26608 0.07162,-5.26608 h 1.44973 1.44973 v 7.93751 7.9375 l -1.389063,-0.002 -1.389062,-0.002 -3.307292,-5.1436 c -1.81901,-2.82897 -3.396588,-5.14984 -3.505729,-5.15749 -0.109141,-0.008 -0.198438,2.30782 -0.198438,5.14548 v 5.15938 H 81.058398 79.60319 Z m 44.714581,2.11666 v -5.82083 h 1.45521 1.45521 v 5.82083 5.82084 h -1.45521 -1.45521 z m 19.84375,0 v -5.82083 h 1.45521 c 1.27882,0 1.45521,0.0641 1.45521,0.52917 0,0.29104 0.0298,0.52866 0.0661,0.52805 0.0364,-6e-4 0.65188,-0.29826 1.36776,-0.66145 0.71589,-0.3632 1.66839,-0.66017 2.11667,-0.65994 1.16634,5.8e-4 2.56028,0.78146 3.25718,1.82465 0.56677,0.84842 0.60058,1.15747 0.60058,5.49011 v 4.59108 h -1.29408 -1.29408 l -0.0955,-3.91501 c -0.11247,-4.61107 -0.38311,-5.34541 -1.97006,-5.34541 -2.25704,0 -2.75463,1.04993 -2.75463,5.81233 v 3.44809 h -1.45521 -1.45521 z m 27.78125,-2.24896 v -8.06979 h 1.32292 1.32292 v 8.06979 8.0698 h -1.32292 -1.32292 z m -47.19244,-5.17858 c -1.34085,-1.05471 -0.65998,-3.15579 1.02265,-3.15579 1.68263,0 2.3635,2.10108 1.02265,3.15579 -0.38342,0.30161 -0.84362,0.54838 -1.02265,0.54838 -0.17903,0 -0.63922,-0.24677 -1.02265,-0.54838 z"
             id="path57"
             sodipodi:nodetypes="sscccsssscccccsssscssscsscccssssccssssssssssssscccsscssssssscccccccccccssscccccccssscccccccccccccccccsscssssscccsssscccssssccccssscssscsssscssscccsssssscccccccccccccccccccccccccccsssscssccsscsssscscssscsssscssccsssssssscccccccsssssscsssscsscccsssssssssssssssscsscsscscssssssssssssssscsssssscccsssccsssscccssssssccsssccccssscccssccccccccccccccscscccccccccccccccssssssscccssscccccccccccccsssss" /></g></g></g></g></svg>
