<?xml version="1.0" encoding="UTF-8" standalone="no"?>
<!-- Created with Inkscape (http://www.inkscape.org/) -->

<svg
   width="158.75002mm"
   height="84.70797mm"
   viewBox="0 0 158.75002 84.70797"
   version="1.1"
   id="svg1"
   xml:space="preserve"
   xmlns:inkscape="http://www.inkscape.org/namespaces/inkscape"
   xmlns:sodipodi="http://sodipodi.sourceforge.net/DTD/sodipodi-0.dtd"
   xmlns="http://www.w3.org/2000/svg"
   xmlns:svg="http://www.w3.org/2000/svg"><sodipodi:namedview
     id="namedview1"
     pagecolor="#ffffff"
     bordercolor="#999999"
     borderopacity="1"
     inkscape:showpageshadow="2"
     inkscape:pageopacity="0"
     inkscape:pagecheckerboard="0"
     inkscape:deskcolor="#d1d1d1"
     inkscape:document-units="mm" /><defs
     id="defs1" /><g
     inkscape:label="Capa 1"
     inkscape:groupmode="layer"
     id="layer1"
     transform="translate(-23.844332,-166.21696)"><path
       style="fill:#03a1e1;stroke:none"
       d="m 23.844332,166.21696 v 26.45834 h 16.66875 l 8.413006,-0.18345 5.898294,-5.01774 10.824117,-0.0905 h 21.43125 v 31.75 h 32.014591 v -31.75 h 21.43125 l 11.07609,0.0905 5.66916,5.01774 8.39017,0.18345 h 16.93333 V 166.21696 H 23.844332 m 0,84.66668 h 17.991667 l 7.709105,-0.008 4.929749,-7.92958 10.644479,-19.57917 9.525,6.72622 17.727084,12.94962 10.847914,7.8822 10.84793,-7.97889 16.13958,-11.7991 11.1125,-7.78005 10.63852,19.84375 4.57265,7.59969 7.80758,0.0732 h 18.25625 l -7.91239,-15.08126 -15.21212,-27.78125 -5.75765,-10.58325 -2.83337,-4.66844 -7.97197,-0.0941 h -18.52083 v 31.48542 H 82.052666 V 192.6753 h -18.25625 l -8.920727,0.18038 -2.253195,4.5822 -5.645164,10.31867 -14.940851,27.25208 -5.065517,9.26042 z"
       id="path199"
       sodipodi:nodetypes="cccccccccccccccccccccccccccccccccccccccccccccccc" /></g></svg>
